<?xml version="1.0" standalone="no"?>
<!DOCTYPE svg PUBLIC "-//W3C//DTD SVG 20010904//EN"
 "http://www.w3.org/TR/2001/REC-SVG-20010904/DTD/svg10.dtd">
<svg version="1.0" xmlns="http://www.w3.org/2000/svg"
 width="276.000000pt" height="276.000000pt" viewBox="0 0 276.000000 276.000000"
 preserveAspectRatio="xMidYMid meet">
<metadata>
Created by potrace 1.14, written by Peter Selinger 2001-2017
</metadata>
<g transform="translate(0.000000,276.000000) scale(0.100000,-0.100000)"
fill="#000000" stroke="none">
<path d="M1268 2624 c-107 -19 -249 -67 -341 -114 -134 -68 -218 -130 -336
-248 -62 -62 -114 -112 -115 -110 -1 2 -33 69 -70 151 -38 81 -74 147 -80 147
-6 0 -44 -74 -85 -163 -169 -369 -241 -532 -241 -544 0 -10 32 -13 136 -13
l137 0 -8 -32 c-39 -182 -46 -390 -20 -542 31 -176 98 -342 202 -499 63 -95
229 -261 323 -324 230 -153 456 -223 725 -223 269 0 492 68 718 217 95 63 261
229 324 323 153 230 223 456 223 725 0 351 -120 643 -365 891 -188 190 -423
314 -679 359 -110 19 -341 19 -448 -1z"/>
</g>
</svg>
